# xmcd
#
# Track frame offsets:
# 150
# 12271
# 25632
# 43121
# 58506
# 78248
# 94384
# 105231
# 122758
# 137216
# 153756
# 171814
# 189779
# 204735
# 219295
# 233872
# 247679
# 264063
# 278194
# 292172
# 310442
# 323170
# 335016
#
# Disc length: 4619 seconds
#
#
# Revision: 1
# Processed by: cddbd v1.5.2PL0 Copyright (c) Steve Scherf et al.
# Submitted via: FreeRIP 2.945 
#
DISCID=39120917
DTITLE=DIVERSOS ARTISTAS - O MELHOR DA MODA DE VIOLA - Encontro Cabocla  - O MELHOR DA MODA DE VIOLA - Encontro Cabocla 
DYEAR=2006
DGENRE=Caipira
TTITLE0=Renato Teixeira - Amanheceu peguei a viola
TTITLE1=TAlmir Sater - Tocando em frente
TTITLE2=Rolando Boldrin - Vide-vida marvada
TTITLE3=Renato Teixeira and Pena Branca e Xavantinho - Cuitelinho
TTITLE4=Renato Teixeira - Romaria
TTITLE5=Almir Sater - Um violeiro toca
TTITLE6=Rolando Boldrin -  Flor do cafezal
TTITLE7=Pena Branca e Xavantinho - Tristeza do jeca
TTITLE8=Renato Teixeira - Chalana
TTITLE9=Almir Sater - A saudade de uma estrada longa
TTITLE10=Rolando Boldrin - Chico mulato
TTITLE11=Pena Branca e Xavantinho - Poeira
TTITLE12=AmorRenato Teixeira - a
TTITLE13=Almir Sater - Trem do pantanal
TTITLE14=Rolando Boldrin - Cabocla Tereza
TTITLE15=Pena Branca e Xavantinho - A vida do viajante
TTITLE16=Renato Teixeira - Rio de lágrimas
TTITLE17=Almir Sater - Peão
TTITLE18=Pena Branca e Xavantinho - Viola quebrada
TTITLE19=Rolando Boldrin - Chapéu de paia
TTITLE20=Pena Branca e Xavantinho - A saudade mata a gente
TTITLE21=Renato Teixeira - Quebra de milho
TTITLE22=Pena Branca e Xavantinho - Pingo D´água
EXTD=DIVERSOS ARTISTAS - O MELHOR DA MODA DE VIOLA - Encontro Cabocla 
EXTT0=
EXTT1=
EXTT2=
EXTT3=
EXTT4=
EXTT5=
EXTT6=
EXTT7=
EXTT8=
EXTT9=
EXTT10=
EXTT11=
EXTT12=
EXTT13=
EXTT14=
EXTT15=
EXTT16=
EXTT17=
EXTT18=
EXTT19=
EXTT20=
EXTT21=
EXTT22=
PLAYORDER=
